<svg width="526" height="526" viewBox="0 0 526 526" fill="none" xmlns="http://www.w3.org/2000/svg">
<g filter="url(#filter0_d_32_1251)">
<rect width="363.449" height="363.449" transform="translate(40.7258 114.17) rotate(-15)" fill="white"/>
<path d="M152.25 265.309L158.741 269.056M158.741 269.056L162.489 262.565M158.741 269.056L154.969 254.978C154.211 252.151 155.889 249.245 158.716 248.487L174.075 244.372C176.902 243.614 179.808 245.292 180.566 248.119L184.338 262.198M168.662 285.603L162.17 281.855M162.17 281.855L158.423 288.346M162.17 281.855L165.943 295.933C166.7 298.761 165.022 301.667 162.195 302.425L146.837 306.54C144.009 307.297 141.103 305.619 140.346 302.792L136.573 288.714M170.603 267.25L166.855 273.741M166.855 273.741L173.346 277.489M166.855 273.741L180.933 269.969C183.761 269.211 186.667 270.889 187.425 273.716L191.54 289.075C192.297 291.902 190.619 294.808 187.792 295.566L173.714 299.338M150.309 283.662L154.056 277.17M154.056 277.17L147.565 273.423M154.056 277.17L139.978 280.943C137.151 281.7 134.245 280.022 133.487 277.195L129.372 261.837C128.614 259.009 130.292 256.103 133.119 255.346L147.198 251.573" stroke="black" stroke-width="4" stroke-linecap="round" stroke-linejoin="round"/>
<path d="M225.681 246.514L231.977 270.01L228.123 271.042L223.811 254.95L220.955 272.963L218.285 273.679L206.772 259.516L211.084 275.608L207.23 276.641L200.934 253.145L205.092 252.03L218.278 268.245L221.556 247.619L225.681 246.514ZM233.239 259.598C232.738 257.728 232.677 255.968 233.057 254.321C233.459 252.667 234.22 251.267 235.338 250.122C236.473 248.948 237.852 248.144 239.475 247.709C240.94 247.317 242.291 247.269 243.53 247.565C244.786 247.832 245.855 248.307 246.738 248.988L246.013 246.283L249.901 245.242L254.892 263.87L251.005 264.911L250.262 262.139C249.844 263.193 249.15 264.164 248.18 265.052C247.21 265.94 246.004 266.577 244.561 266.964C242.961 267.393 241.387 267.379 239.84 266.924C238.287 266.447 236.92 265.581 235.738 264.328C234.573 263.045 233.74 261.469 233.239 259.598ZM248.504 255.58C248.16 254.296 247.591 253.253 246.796 252.451C246.024 251.643 245.144 251.106 244.154 250.84C243.165 250.573 242.174 250.573 241.183 250.839C240.191 251.105 239.333 251.6 238.61 252.325C237.88 253.028 237.372 253.925 237.084 255.017C236.814 256.08 236.85 257.254 237.195 258.538C237.539 259.823 238.1 260.881 238.878 261.711C239.679 262.535 240.577 263.092 241.572 263.38C242.584 263.641 243.574 263.641 244.543 263.381C245.535 263.116 246.393 262.62 247.116 261.895C247.84 261.169 248.334 260.264 248.599 259.179C248.88 258.064 248.849 256.865 248.504 255.58ZM256.263 240.892C255.564 241.079 254.915 240.999 254.315 240.653C253.714 240.307 253.321 239.784 253.134 239.085C252.946 238.387 253.026 237.737 253.373 237.137C253.719 236.537 254.242 236.143 254.94 235.956C255.616 235.775 256.255 235.858 256.855 236.204C257.455 236.55 257.848 237.073 258.036 237.772C258.223 238.47 258.143 239.12 257.797 239.72C257.45 240.32 256.939 240.711 256.263 240.892ZM258.817 242.853L263.809 261.48L259.955 262.513L254.963 243.885L258.817 242.853ZM273.194 238.674C274.659 238.282 276.048 238.236 277.361 238.536C278.696 238.831 279.85 239.488 280.824 240.507C281.797 241.526 282.511 242.881 282.964 244.572L285.908 255.559L282.087 256.583L279.297 246.17C278.85 244.502 278.092 243.34 277.023 242.685C275.947 242.007 274.688 241.861 273.246 242.248C271.803 242.634 270.775 243.393 270.16 244.524C269.561 245.626 269.486 247.011 269.933 248.679L272.723 259.092L268.869 260.125L263.877 241.497L267.731 240.464L268.302 242.594C268.728 241.659 269.368 240.847 270.222 240.159C271.099 239.465 272.09 238.97 273.194 238.674ZM290.42 237.32C290.844 236.288 291.541 235.328 292.511 234.44C293.481 233.552 294.676 232.918 296.096 232.538C297.719 232.103 299.304 232.113 300.851 232.568C302.414 232.995 303.773 233.826 304.925 235.063C306.078 236.301 306.905 237.855 307.407 239.725C307.908 241.596 307.975 243.378 307.607 245.07C307.233 246.741 306.482 248.174 305.353 249.37C304.241 250.538 302.873 251.339 301.25 251.774C299.83 252.155 298.493 252.211 297.237 251.943C295.976 251.653 294.881 251.174 293.953 250.505L297.051 262.067L293.197 263.099L285.832 235.614L289.686 234.581L290.42 237.32ZM303.485 240.776C303.141 239.491 302.574 238.459 301.786 237.68C301.014 236.873 300.125 236.35 299.119 236.112C298.13 235.846 297.139 235.845 296.147 236.111C295.178 236.371 294.321 236.866 293.575 237.598C292.851 238.323 292.346 239.231 292.058 240.323C291.794 241.408 291.833 242.594 292.178 243.878C292.522 245.163 293.083 246.22 293.861 247.051C294.656 247.852 295.547 248.386 296.537 248.653C297.549 248.913 298.539 248.913 299.508 248.654C300.5 248.388 301.358 247.892 302.081 247.167C302.821 246.413 303.321 245.482 303.579 244.374C303.861 243.26 303.829 242.061 303.485 240.776ZM321.898 246.242C320.14 246.713 318.445 246.744 316.814 246.336C315.176 245.905 313.759 245.077 312.561 243.852C311.357 242.604 310.498 241.022 309.985 239.107C309.478 237.214 309.445 235.423 309.886 233.734C310.328 232.046 311.164 230.614 312.395 229.439C313.626 228.263 315.132 227.437 316.912 226.96C318.693 226.483 320.41 226.445 322.064 226.848C323.718 227.25 325.158 228.072 326.384 229.314C327.611 230.555 328.478 232.123 328.985 234.016C329.492 235.909 329.514 237.703 329.05 239.397C328.586 241.092 327.719 242.544 326.449 243.754C325.195 244.935 323.678 245.765 321.898 246.242ZM321.001 242.895C321.992 242.629 322.853 242.145 323.583 241.442C324.335 240.733 324.855 239.833 325.142 238.741C325.429 237.65 325.392 236.428 325.029 235.076C324.667 233.723 324.103 232.655 323.337 231.869C322.565 231.062 321.687 230.536 320.704 230.292C319.721 230.048 318.733 230.059 317.741 230.325C316.75 230.591 315.889 231.075 315.159 231.778C314.452 232.475 313.978 233.363 313.736 234.442C313.487 235.499 313.544 236.704 313.907 238.056C314.444 240.062 315.368 241.481 316.678 242.314C318.005 243.118 319.446 243.311 321.001 242.895ZM331.603 220.705C330.904 220.892 330.255 220.812 329.655 220.466C329.055 220.119 328.661 219.597 328.474 218.898C328.287 218.199 328.366 217.55 328.713 216.95C329.059 216.35 329.582 215.956 330.281 215.769C330.957 215.587 331.595 215.67 332.195 216.017C332.795 216.363 333.189 216.886 333.376 217.584C333.563 218.283 333.484 218.932 333.137 219.533C332.791 220.133 332.279 220.523 331.603 220.705ZM334.158 222.665L339.149 241.293L335.295 242.326L330.304 223.698L334.158 222.665ZM348.535 218.487C350 218.094 351.388 218.048 352.701 218.349C354.036 218.643 355.19 219.3 356.164 220.32C357.138 221.339 357.851 222.694 358.304 224.384L361.248 235.372L357.428 236.395L354.638 225.983C354.191 224.315 353.433 223.153 352.363 222.498C351.288 221.819 350.029 221.674 348.586 222.06C347.144 222.447 346.115 223.205 345.5 224.336C344.902 225.439 344.826 226.824 345.273 228.492L348.063 238.905L344.209 239.937L339.218 221.309L343.072 220.277L343.642 222.407C344.068 221.471 344.708 220.659 345.563 219.972C346.44 219.278 347.43 218.783 348.535 218.487ZM366.512 217.366L369.274 227.677C369.462 228.376 369.755 228.841 370.155 229.072C370.572 229.274 371.175 229.27 371.963 229.058L374.33 228.424L375.191 231.636L372.148 232.451C370.412 232.916 368.974 232.867 367.833 232.303C366.691 231.739 365.876 230.544 365.387 228.719L362.624 218.408L360.426 218.996L359.584 215.852L361.781 215.263L360.54 210.632L364.428 209.59L365.669 214.222L370.199 213.008L371.042 216.152L366.512 217.366Z" fill="black"/>
</g>
<defs>
<filter id="filter0_d_32_1251" x="0.72583" y="0.102905" width="525.132" height="525.132" filterUnits="userSpaceOnUse" color-interpolation-filters="sRGB">
<feFlood flood-opacity="0" result="BackgroundImageFix"/>
<feColorMatrix in="SourceAlpha" type="matrix" values="0 0 0 0 0 0 0 0 0 0 0 0 0 0 0 0 0 0 127 0" result="hardAlpha"/>
<feOffset dy="20"/>
<feGaussianBlur stdDeviation="20"/>
<feComposite in2="hardAlpha" operator="out"/>
<feColorMatrix type="matrix" values="0 0 0 0 1 0 0 0 0 0.47451 0 0 0 0 0.121569 0 0 0 0.15 0"/>
<feBlend mode="normal" in2="BackgroundImageFix" result="effect1_dropShadow_32_1251"/>
<feBlend mode="normal" in="SourceGraphic" in2="effect1_dropShadow_32_1251" result="shape"/>
</filter>
</defs>
</svg>
